<svg width="1026" height="206" viewBox="0 0 1026 206" fill="none" xmlns="http://www.w3.org/2000/svg">
<g filter="url(#filter0_d_9_7)">
<rect x="14.5" y="14.5" width="172" height="177" rx="12.5" stroke="url(#paint0_linear_9_7)" stroke-width="3" shape-rendering="crispEdges"/>
<path d="M70.5 33.2059L75.9531 95.5694L100.422 103.794L125.047 95.5694L130.5 33.2059H70.5ZM118.656 53.3582H89.9375L90.5781 61.1419H118.016L115.891 84.5242L100.594 88.7784V88.8257H100.422L85 84.5242L84.0625 72.5809H91.5156L92.0625 78.5841L100.422 80.8687L108.812 78.5841L109.75 68.7837H83.6719L81.6719 45.8425H119.344L118.656 53.3582Z" fill="#F5F5F5"/>
<path d="M75.0469 141.832V133.169H78.6844V153.794H75.0469V145.169H65.0719V153.794H61.3969V133.169H65.0719V141.832H75.0469ZM81.6738 136.469V133.169H98.8488V136.469H92.0988V153.794H88.4238V136.469H81.6738ZM101.841 153.794V133.169H106.753L112.341 144.457L118.041 133.169H122.691V153.794H119.053V138.232L113.841 148.507H110.691L105.516 138.232V153.794H101.841ZM127.717 153.794V133.169H131.392V150.457H141.217V153.794H127.717Z" fill="#F5F5F5"/>
</g>
<g filter="url(#filter1_d_9_7)">
<rect x="289.5" y="14.5" width="172" height="177" rx="12.5" stroke="url(#paint1_linear_9_7)" stroke-width="3" shape-rendering="crispEdges"/>
<path d="M345.5 33.3781L350.953 95.4373L375.5 103.622L400.047 95.4373L405.5 33.3781H345.5ZM394.422 45.9216L393.672 53.338L375.656 61.0679L375.609 61.0836H393.031L391.031 84.0697L375.688 88.5697L360.25 83.9913L359.25 72.4042H366.891L367.391 78.4094L375.609 80.4948L384.156 78.0801L384.734 68.4216L358.75 68.3432V68.3275L358.719 68.3432L358.156 61.0836L375.672 53.7613L376.688 53.338H357.484L356.578 45.9216H394.422Z" fill="#F5F5F5"/>
<path d="M352.988 134.197C354.663 133.272 356.601 132.809 358.801 132.809C360.801 132.809 362.726 133.197 364.576 133.972L365.176 134.197L363.938 137.084L363.376 136.897C362.376 136.522 361.538 136.297 360.863 136.222C360.188 136.122 359.476 136.072 358.726 136.072C357.276 136.072 356.001 136.397 354.901 137.047C353.826 137.672 353.001 138.534 352.426 139.634C351.851 140.734 351.563 141.947 351.563 143.272C351.563 145.472 352.238 147.247 353.588 148.597C354.963 149.922 356.851 150.584 359.251 150.584C360.476 150.584 361.963 150.259 363.713 149.609L364.238 149.384L365.438 152.347L364.913 152.572C363.713 153.047 362.626 153.397 361.651 153.622C360.676 153.847 359.663 153.959 358.613 153.959C356.413 153.959 354.488 153.484 352.838 152.534C351.213 151.584 349.963 150.297 349.088 148.672C348.238 147.047 347.813 145.259 347.813 143.309C347.813 141.309 348.263 139.522 349.163 137.947C350.063 136.347 351.338 135.097 352.988 134.197ZM379.62 136.559C378.82 136.359 377.983 136.259 377.108 136.259C375.833 136.259 374.833 136.484 374.108 136.934C373.383 137.384 373.02 137.997 373.02 138.772C373.02 139.422 373.345 139.934 373.995 140.309C374.67 140.684 375.72 141.097 377.145 141.547C378.595 141.997 379.783 142.434 380.708 142.859C381.658 143.284 382.47 143.909 383.145 144.734C383.82 145.559 384.158 146.609 384.158 147.884C384.158 148.934 383.87 149.922 383.295 150.847C382.72 151.747 381.783 152.497 380.483 153.097C379.208 153.672 377.57 153.959 375.57 153.959C374.395 153.959 373.32 153.847 372.345 153.622C371.37 153.372 370.233 152.997 368.933 152.497L368.445 152.272L369.683 148.934L370.245 149.159C372.52 150.009 374.395 150.434 375.87 150.434C377.22 150.434 378.308 150.209 379.133 149.759C379.958 149.284 380.37 148.659 380.37 147.884C380.395 147.134 380.07 146.572 379.395 146.197C378.72 145.797 377.633 145.372 376.133 144.922C374.708 144.472 373.533 144.034 372.608 143.609C371.683 143.184 370.895 142.572 370.245 141.772C369.595 140.947 369.27 139.897 369.27 138.622C369.27 137.497 369.583 136.497 370.208 135.622C370.833 134.747 371.733 134.059 372.908 133.559C374.083 133.059 375.445 132.809 376.995 132.809C378.32 132.809 379.445 132.922 380.37 133.147C381.295 133.347 382.195 133.597 383.07 133.897L383.483 134.047L382.283 137.384C381.333 137.009 380.445 136.734 379.62 136.559ZM398.641 136.559C397.841 136.359 397.004 136.259 396.129 136.259C394.854 136.259 393.854 136.484 393.129 136.934C392.404 137.384 392.041 137.997 392.041 138.772C392.041 139.422 392.366 139.934 393.016 140.309C393.691 140.684 394.741 141.097 396.166 141.547C397.616 141.997 398.804 142.434 399.729 142.859C400.679 143.284 401.491 143.909 402.166 144.734C402.841 145.559 403.179 146.609 403.179 147.884C403.179 148.934 402.891 149.922 402.316 150.847C401.741 151.747 400.804 152.497 399.504 153.097C398.229 153.672 396.591 153.959 394.591 153.959C393.416 153.959 392.341 153.847 391.366 153.622C390.391 153.372 389.254 152.997 387.954 152.497L387.466 152.272L388.704 148.934L389.266 149.159C391.541 150.009 393.416 150.434 394.891 150.434C396.241 150.434 397.329 150.209 398.154 149.759C398.979 149.284 399.391 148.659 399.391 147.884C399.416 147.134 399.091 146.572 398.416 146.197C397.741 145.797 396.654 145.372 395.154 144.922C393.729 144.472 392.554 144.034 391.629 143.609C390.704 143.184 389.916 142.572 389.266 141.772C388.616 140.947 388.291 139.897 388.291 138.622C388.291 137.497 388.604 136.497 389.229 135.622C389.854 134.747 390.754 134.059 391.929 133.559C393.104 133.059 394.466 132.809 396.016 132.809C397.341 132.809 398.466 132.922 399.391 133.147C400.316 133.347 401.216 133.597 402.091 133.897L402.504 134.047L401.304 137.384C400.354 137.009 399.466 136.734 398.641 136.559Z" fill="#F5F5F5"/>
</g>
<g filter="url(#filter2_d_9_7)">
<rect x="564.5" y="14.5" width="172" height="177" rx="12.5" stroke="url(#paint2_linear_9_7)" stroke-width="3" shape-rendering="crispEdges"/>
<path d="M671.266 38.1666H659.25L650.5 52.1751L643 38.1666H615.5L650.5 98.8333L685.5 38.1666H671.266ZM624.203 43.2261H632.609L650.5 74.5635L668.375 43.2261H676.781L650.5 88.7933L624.203 43.2261Z" fill="#F5F5F5"/>
<path d="M617.373 148.833L609.835 128.208H613.998L619.735 144.896L624.948 128.208H628.885L621.76 148.833H617.373ZM644.211 148.871H641.736L641.286 147.821C640.336 148.271 639.524 148.608 638.849 148.833C638.199 149.058 637.449 149.171 636.599 149.171C634.424 149.171 632.999 148.546 632.324 147.296C631.674 146.021 631.349 144.471 631.349 142.646V134.433H634.911V143.133C634.911 143.908 635.099 144.596 635.474 145.196C635.849 145.796 636.536 146.096 637.536 146.096C638.636 146.096 639.686 145.808 640.686 145.233V134.433H644.211V148.871ZM650.813 135.146C651.838 134.521 652.938 134.208 654.113 134.208C656.288 134.208 657.951 134.883 659.101 136.233C660.276 137.558 660.863 139.383 660.863 141.708V143.096H651.076C651.176 144.321 651.601 145.171 652.351 145.646C653.101 146.121 654.163 146.358 655.538 146.358C656.988 146.358 658.313 146.208 659.513 145.908L660.151 148.346C658.526 148.921 656.826 149.208 655.051 149.208C652.576 149.208 650.688 148.521 649.388 147.146C648.088 145.771 647.438 143.958 647.438 141.708C647.438 140.208 647.751 138.896 648.376 137.771C649.001 136.621 649.813 135.746 650.813 135.146ZM656.438 137.958C655.863 137.333 655.113 137.021 654.188 137.021C653.438 137.021 652.751 137.333 652.126 137.958C651.526 138.583 651.201 139.458 651.151 140.583H657.301C657.301 139.433 657.013 138.558 656.438 137.958ZM665.687 149.246C665.112 149.246 664.612 149.033 664.187 148.608C663.762 148.183 663.549 147.683 663.549 147.108C663.549 146.533 663.762 146.033 664.187 145.608C664.612 145.183 665.112 144.971 665.687 144.971C666.262 144.971 666.762 145.183 667.187 145.608C667.612 146.033 667.824 146.533 667.824 147.108C667.824 147.683 667.612 148.183 667.187 148.608C666.762 149.033 666.262 149.246 665.687 149.246ZM671.663 148.721V134.433H675.188V149.921C675.188 151.396 674.851 152.696 674.176 153.821C673.526 154.971 672.226 155.896 670.276 156.596L669.788 156.746L668.551 154.271L669.076 153.971C669.876 153.571 670.451 153.171 670.801 152.771C671.151 152.396 671.376 151.908 671.476 151.308C671.601 150.733 671.663 149.871 671.663 148.721ZM671.813 131.321C672.263 131.771 672.801 131.996 673.426 131.996C674.076 131.996 674.613 131.771 675.038 131.321C675.488 130.871 675.713 130.333 675.713 129.708C675.713 129.058 675.488 128.521 675.038 128.096C674.613 127.646 674.076 127.421 673.426 127.421C672.801 127.421 672.263 127.646 671.813 128.096C671.363 128.521 671.138 129.058 671.138 129.708C671.138 130.333 671.363 130.871 671.813 131.321ZM684.03 149.171C682.18 149.171 680.318 148.733 678.443 147.858L679.455 145.046C680.305 145.346 681.168 145.596 682.043 145.796C682.918 145.996 683.643 146.096 684.218 146.096C685.268 146.096 686.005 145.983 686.43 145.758C686.855 145.533 687.068 145.183 687.068 144.708C687.068 144.383 686.868 144.121 686.468 143.921C686.068 143.721 685.405 143.471 684.48 143.171C683.38 142.846 682.455 142.521 681.705 142.196C680.955 141.846 680.305 141.346 679.755 140.696C679.205 140.021 678.93 139.171 678.93 138.146C678.93 137.146 679.343 136.246 680.168 135.446C680.993 134.621 682.618 134.208 685.043 134.208C685.818 134.208 686.643 134.296 687.518 134.471C688.418 134.646 689.18 134.833 689.805 135.033L688.905 137.808C687.355 137.358 686.08 137.133 685.08 137.133C683.98 137.133 683.243 137.233 682.868 137.433C682.493 137.633 682.305 137.921 682.305 138.296C682.305 138.696 682.53 139.021 682.98 139.271C683.455 139.521 684.193 139.796 685.193 140.096C686.293 140.421 687.193 140.746 687.893 141.071C688.618 141.396 689.23 141.858 689.73 142.458C690.255 143.058 690.518 143.821 690.518 144.746C690.518 145.871 690.03 146.896 689.055 147.821C688.105 148.721 686.43 149.171 684.03 149.171Z" fill="#F5F5F5"/>
</g>
<g filter="url(#filter3_d_9_7)">
<rect x="839.5" y="14.5" width="172" height="177" rx="12.5" stroke="url(#paint3_linear_9_7)" stroke-width="3" shape-rendering="crispEdges"/>
<path d="M934.647 75.9906C934.647 81.6705 929.328 81.5393 928.765 81.5393H917.932V70.5987H928.765C934.465 70.5987 934.647 74.871 934.647 75.9906ZM927.931 66.1964C928.021 66.1964 933.079 66.3304 933.079 61.3335C933.079 59.2549 932.609 56.5295 927.931 56.5295H917.932V66.1964H927.931ZM955.5 48.5004V88.4995C955.492 91.1494 954.436 93.6886 952.562 95.5623C950.689 97.4361 948.149 98.4922 945.5 98.5H905.5C902.851 98.4922 900.311 97.4361 898.438 95.5623C896.564 93.6886 895.508 91.1494 895.5 88.4995V48.5004C895.508 45.8506 896.564 43.3114 898.438 41.4376C900.311 39.5639 902.851 38.5078 905.5 38.5H945.5C948.149 38.5078 950.689 39.5639 952.562 41.4376C954.436 43.3114 955.492 45.8506 955.5 48.5004ZM940.775 76.7848C940.775 73.896 939.884 68.9781 934.205 67.7647V67.667C937.274 66.3571 939.206 63.8835 939.206 60.2152C939.206 59.2777 939.474 51.5393 928.813 51.5393H911.804V86.5388C928.978 86.5388 930.537 86.7638 933.715 85.7741C935.618 85.1821 940.775 83.3661 940.775 76.7848Z" fill="#F5F5F5"/>
<path d="M858.181 148.5V127.875H865.194C867.869 127.875 869.719 128.438 870.744 129.563C871.794 130.663 872.319 131.888 872.319 133.238C872.319 135.188 871.419 136.713 869.619 137.813C870.994 138.088 872.056 138.713 872.806 139.688C873.581 140.663 873.969 141.725 873.969 142.875C873.969 144.4 873.281 145.725 871.906 146.85C870.556 147.95 868.156 148.5 864.706 148.5H858.181ZM867.819 131.738C867.194 131.288 866.094 131.062 864.519 131.062H861.856V136.35H864.519C866.019 136.35 867.094 136.138 867.744 135.713C868.419 135.288 868.756 134.625 868.756 133.725C868.756 132.85 868.444 132.188 867.819 131.738ZM868.869 140.212C867.919 139.688 866.381 139.425 864.256 139.425L861.856 139.463V145.275H864.256C866.331 145.275 867.856 145.075 868.831 144.675C869.831 144.275 870.331 143.538 870.331 142.462C870.331 141.463 869.844 140.712 868.869 140.212ZM887.838 147.9C886.713 148.525 885.413 148.837 883.938 148.837C882.463 148.837 881.163 148.525 880.038 147.9C878.938 147.25 878.075 146.363 877.45 145.237C876.85 144.113 876.55 142.825 876.55 141.375C876.55 139.05 877.225 137.225 878.575 135.9C879.925 134.55 881.725 133.875 883.975 133.875C886.225 133.875 888.013 134.55 889.338 135.9C890.688 137.25 891.363 139.063 891.363 141.338C891.363 142.813 891.05 144.113 890.425 145.237C889.825 146.363 888.963 147.25 887.838 147.9ZM886.563 137.925C885.863 137.1 884.988 136.688 883.938 136.688C882.913 136.688 882.038 137.1 881.313 137.925C880.613 138.75 880.263 139.9 880.263 141.375C880.263 142.825 880.613 143.963 881.313 144.788C882.013 145.588 882.888 145.988 883.938 145.988C885.038 145.988 885.925 145.588 886.6 144.788C887.3 143.988 887.65 142.85 887.65 141.375C887.65 139.875 887.288 138.725 886.563 137.925ZM905.188 147.9C904.063 148.525 902.763 148.837 901.288 148.837C899.813 148.837 898.513 148.525 897.388 147.9C896.288 147.25 895.426 146.363 894.801 145.237C894.201 144.113 893.901 142.825 893.901 141.375C893.901 139.05 894.576 137.225 895.926 135.9C897.276 134.55 899.076 133.875 901.326 133.875C903.576 133.875 905.363 134.55 906.688 135.9C908.038 137.25 908.713 139.063 908.713 141.338C908.713 142.813 908.401 144.113 907.776 145.237C907.176 146.363 906.313 147.25 905.188 147.9ZM903.913 137.925C903.213 137.1 902.338 136.688 901.288 136.688C900.263 136.688 899.388 137.1 898.663 137.925C897.963 138.75 897.613 139.9 897.613 141.375C897.613 142.825 897.963 143.963 898.663 144.788C899.363 145.588 900.238 145.988 901.288 145.988C902.388 145.988 903.276 145.588 903.951 144.788C904.651 143.988 905.001 142.85 905.001 141.375C905.001 139.875 904.638 138.725 903.913 137.925ZM918.827 145.913C919.552 145.913 920.477 145.763 921.602 145.462L922.089 148.013C921.214 148.263 920.464 148.463 919.839 148.612C919.239 148.762 918.639 148.837 918.039 148.837C915.964 148.837 914.577 148.4 913.877 147.525C913.202 146.65 912.864 145.437 912.864 143.887V136.913H910.464V134.1H912.864V129.975H916.464V134.1H921.452V136.913H916.464V143.812C916.464 145.213 917.252 145.913 918.827 145.913ZM929.628 148.837C927.778 148.837 925.915 148.4 924.04 147.525L925.053 144.713C925.903 145.013 926.765 145.263 927.64 145.462C928.515 145.663 929.24 145.763 929.815 145.763C930.865 145.763 931.603 145.65 932.028 145.425C932.453 145.2 932.665 144.85 932.665 144.375C932.665 144.05 932.465 143.788 932.065 143.588C931.665 143.388 931.003 143.138 930.078 142.838C928.978 142.513 928.053 142.188 927.303 141.863C926.553 141.513 925.903 141.013 925.353 140.363C924.803 139.688 924.528 138.837 924.528 137.813C924.528 136.813 924.94 135.913 925.765 135.113C926.59 134.288 928.215 133.875 930.64 133.875C931.415 133.875 932.24 133.963 933.115 134.138C934.015 134.313 934.778 134.5 935.403 134.7L934.503 137.475C932.953 137.025 931.678 136.8 930.678 136.8C929.578 136.8 928.84 136.9 928.465 137.1C928.09 137.3 927.903 137.587 927.903 137.963C927.903 138.363 928.128 138.688 928.578 138.938C929.053 139.187 929.79 139.462 930.79 139.763C931.89 140.087 932.79 140.412 933.49 140.738C934.215 141.063 934.828 141.525 935.328 142.125C935.853 142.725 936.115 143.488 936.115 144.412C936.115 145.537 935.628 146.563 934.653 147.488C933.703 148.388 932.028 148.837 929.628 148.837ZM946.175 145.913C946.9 145.913 947.825 145.763 948.95 145.462L949.437 148.013C948.562 148.263 947.812 148.463 947.187 148.612C946.587 148.762 945.987 148.837 945.387 148.837C943.312 148.837 941.925 148.4 941.225 147.525C940.55 146.65 940.212 145.437 940.212 143.887V136.913H937.812V134.1H940.212V129.975H943.812V134.1H948.8V136.913H943.812V143.812C943.812 145.213 944.6 145.913 946.175 145.913ZM951.988 134.1H954.538L954.988 135.15C956.313 134.3 957.726 133.875 959.226 133.875C960.151 133.875 961.026 134.063 961.851 134.438L961.138 137.7L960.988 137.738C960.138 137.238 959.113 136.988 957.913 136.988C957.088 136.988 956.301 137.125 955.551 137.4V148.5H951.988V134.1ZM964.804 134.85C966.754 134.2 968.354 133.875 969.604 133.875C972.029 133.875 973.717 134.375 974.667 135.375C975.642 136.375 976.129 137.8 976.129 139.65V148.5H973.279L972.867 147.488C971.742 148.388 970.342 148.837 968.667 148.837C967.117 148.837 965.879 148.438 964.954 147.638C964.029 146.837 963.567 145.813 963.567 144.563C963.567 143.163 964.079 142.075 965.104 141.3C966.154 140.5 967.642 140.05 969.567 139.95L972.379 139.8C972.379 138.55 972.154 137.7 971.704 137.25C971.254 136.8 970.367 136.575 969.042 136.575C967.917 136.575 966.692 136.825 965.367 137.325L964.804 134.85ZM971.854 145.688C972.179 145.513 972.404 145.388 972.529 145.313V142.238L969.979 142.425C968.104 142.525 967.167 143.15 967.167 144.3C967.167 144.875 967.379 145.325 967.804 145.65C968.229 145.975 968.817 146.138 969.567 146.138C970.067 146.138 970.492 146.1 970.842 146.025C971.192 145.95 971.529 145.838 971.854 145.688ZM979.985 134.1H982.497L982.91 135.038C984.31 134.263 985.735 133.875 987.185 133.875C988.235 133.875 989.285 134.113 990.335 134.588C991.385 135.063 992.26 135.863 992.96 136.988C993.685 138.088 994.047 139.538 994.047 141.338C994.047 143.663 993.397 145.5 992.097 146.85C990.822 148.175 989.022 148.837 986.697 148.837C986.122 148.837 985.597 148.775 985.122 148.65C984.672 148.525 984.16 148.338 983.585 148.088V156.225H979.985V134.1ZM990.372 141.525C990.372 138.325 988.985 136.725 986.21 136.725C985.285 136.725 984.422 136.9 983.622 137.25V145.313C984.347 145.788 985.172 146.025 986.097 146.025C987.372 146.025 988.397 145.675 989.172 144.975C989.972 144.25 990.372 143.1 990.372 141.525Z" fill="#F5F5F5"/>
</g>
<defs>
<filter id="filter0_d_9_7" x="0.4" y="0.4" width="200.2" height="205.2" filterUnits="userSpaceOnUse" color-interpolation-filters="sRGB">
<feFlood flood-opacity="0" result="BackgroundImageFix"/>
<feColorMatrix in="SourceAlpha" type="matrix" values="0 0 0 0 0 0 0 0 0 0 0 0 0 0 0 0 0 0 127 0" result="hardAlpha"/>
<feOffset/>
<feGaussianBlur stdDeviation="6.3"/>
<feComposite in2="hardAlpha" operator="out"/>
<feColorMatrix type="matrix" values="0 0 0 0 0.890196 0 0 0 0 0.298039 0 0 0 0 0.14902 0 0 0 0.78 0"/>
<feBlend mode="normal" in2="BackgroundImageFix" result="effect1_dropShadow_9_7"/>
<feBlend mode="normal" in="SourceGraphic" in2="effect1_dropShadow_9_7" result="shape"/>
</filter>
<filter id="filter1_d_9_7" x="275.4" y="0.4" width="200.2" height="205.2" filterUnits="userSpaceOnUse" color-interpolation-filters="sRGB">
<feFlood flood-opacity="0" result="BackgroundImageFix"/>
<feColorMatrix in="SourceAlpha" type="matrix" values="0 0 0 0 0 0 0 0 0 0 0 0 0 0 0 0 0 0 127 0" result="hardAlpha"/>
<feOffset/>
<feGaussianBlur stdDeviation="6.3"/>
<feComposite in2="hardAlpha" operator="out"/>
<feColorMatrix type="matrix" values="0 0 0 0 0.14902 0 0 0 0 0.301961 0 0 0 0 0.894118 0 0 0 0.78 0"/>
<feBlend mode="normal" in2="BackgroundImageFix" result="effect1_dropShadow_9_7"/>
<feBlend mode="normal" in="SourceGraphic" in2="effect1_dropShadow_9_7" result="shape"/>
</filter>
<filter id="filter2_d_9_7" x="550.4" y="0.4" width="200.2" height="205.2" filterUnits="userSpaceOnUse" color-interpolation-filters="sRGB">
<feFlood flood-opacity="0" result="BackgroundImageFix"/>
<feColorMatrix in="SourceAlpha" type="matrix" values="0 0 0 0 0 0 0 0 0 0 0 0 0 0 0 0 0 0 127 0" result="hardAlpha"/>
<feOffset/>
<feGaussianBlur stdDeviation="6.3"/>
<feComposite in2="hardAlpha" operator="out"/>
<feColorMatrix type="matrix" values="0 0 0 0 0.258824 0 0 0 0 0.721569 0 0 0 0 0.513726 0 0 0 0.78 0"/>
<feBlend mode="normal" in2="BackgroundImageFix" result="effect1_dropShadow_9_7"/>
<feBlend mode="normal" in="SourceGraphic" in2="effect1_dropShadow_9_7" result="shape"/>
</filter>
<filter id="filter3_d_9_7" x="825.4" y="0.4" width="200.2" height="205.2" filterUnits="userSpaceOnUse" color-interpolation-filters="sRGB">
<feFlood flood-opacity="0" result="BackgroundImageFix"/>
<feColorMatrix in="SourceAlpha" type="matrix" values="0 0 0 0 0 0 0 0 0 0 0 0 0 0 0 0 0 0 127 0" result="hardAlpha"/>
<feOffset/>
<feGaussianBlur stdDeviation="6.3"/>
<feComposite in2="hardAlpha" operator="out"/>
<feColorMatrix type="matrix" values="0 0 0 0 0.415686 0 0 0 0 0.160784 0 0 0 0 0.913725 0 0 0 0.78 0"/>
<feBlend mode="normal" in2="BackgroundImageFix" result="effect1_dropShadow_9_7"/>
<feBlend mode="normal" in="SourceGraphic" in2="effect1_dropShadow_9_7" result="shape"/>
</filter>
<linearGradient id="paint0_linear_9_7" x1="100.5" y1="-35.392" x2="100.5" y2="258.126" gradientUnits="userSpaceOnUse">
<stop stop-color="#E34C26"/>
<stop offset="1" stop-color="#001214"/>
</linearGradient>
<linearGradient id="paint1_linear_9_7" x1="375.5" y1="-37.201" x2="375.5" y2="254.055" gradientUnits="userSpaceOnUse">
<stop stop-color="#264DE4"/>
<stop offset="1" stop-color="#001214"/>
</linearGradient>
<linearGradient id="paint2_linear_9_7" x1="650.5" y1="-20.0151" x2="650.5" y2="232.347" gradientUnits="userSpaceOnUse">
<stop stop-color="#42B883"/>
<stop offset="1" stop-color="#001214"/>
</linearGradient>
<linearGradient id="paint3_linear_9_7" x1="925.5" y1="-3.28141" x2="925.5" y2="255.864" gradientUnits="userSpaceOnUse">
<stop stop-color="#6A29E9"/>
<stop offset="1" stop-color="#001214"/>
</linearGradient>
</defs>
</svg>
