<svg width="482" height="479" viewBox="0 0 482 479" fill="none" xmlns="http://www.w3.org/2000/svg">
<g filter="url(#filter0_d_16_34)">
<rect x="166" y="165.125" width="150" height="148.752" rx="74.376" fill="#E0007F" fill-opacity="0.1" shape-rendering="crispEdges"/>
<rect x="165.5" y="164.625" width="151" height="149.752" rx="74.876" stroke="#E0007F" stroke-opacity="0.4" shape-rendering="crispEdges"/>
<path d="M219.482 278.185C219.482 278.71 218.879 279.129 218.119 279.129C217.254 279.208 216.651 278.788 216.651 278.185C216.651 277.661 217.254 277.242 218.014 277.242C218.8 277.163 219.482 277.583 219.482 278.185ZM211.331 277.006C211.147 277.53 211.671 278.133 212.458 278.29C213.139 278.552 213.925 278.29 214.083 277.766C214.24 277.242 213.742 276.639 212.956 276.403C212.274 276.22 211.514 276.482 211.331 277.006ZM222.915 276.56C222.155 276.744 221.631 277.242 221.71 277.845C221.788 278.369 222.47 278.71 223.256 278.526C224.016 278.343 224.54 277.845 224.462 277.321C224.383 276.823 223.675 276.482 222.915 276.56ZM240.161 176.125C203.808 176.125 176 203.724 176 240.077C176 269.143 194.294 294.016 220.425 302.77C223.78 303.373 224.96 301.302 224.96 299.599C224.96 297.974 224.881 289.01 224.881 283.506C224.881 283.506 206.534 287.438 202.681 275.696C202.681 275.696 199.694 268.069 195.395 266.103C195.395 266.103 189.393 261.988 195.815 262.067C195.815 262.067 202.341 262.591 205.931 268.829C211.671 278.946 221.29 276.036 225.038 274.306C225.641 270.113 227.345 267.204 229.232 265.474C214.581 263.849 199.798 261.726 199.798 236.512C199.798 229.304 201.79 225.688 205.984 221.075C205.302 219.371 203.075 212.347 206.665 203.278C212.143 201.575 224.75 210.355 224.75 210.355C229.992 208.887 235.627 208.127 241.21 208.127C246.792 208.127 252.427 208.887 257.669 210.355C257.669 210.355 270.276 201.548 275.754 203.278C279.345 212.373 277.117 219.371 276.435 221.075C280.629 225.714 283.198 229.331 283.198 236.512C283.198 261.804 267.76 263.823 253.109 265.474C255.52 267.544 257.565 271.476 257.565 277.635C257.565 286.468 257.486 297.397 257.486 299.546C257.486 301.25 258.692 303.321 262.02 302.718C288.23 294.016 306 269.143 306 240.077C306 203.724 276.514 176.125 240.161 176.125ZM201.476 266.522C201.135 266.784 201.214 267.387 201.659 267.885C202.079 268.304 202.681 268.488 203.022 268.147C203.363 267.885 203.284 267.282 202.839 266.784C202.419 266.365 201.817 266.181 201.476 266.522ZM198.645 264.399C198.462 264.74 198.724 265.159 199.248 265.421C199.667 265.683 200.192 265.605 200.375 265.238C200.558 264.897 200.296 264.478 199.772 264.216C199.248 264.058 198.829 264.137 198.645 264.399ZM207.137 273.73C206.718 274.071 206.875 274.857 207.478 275.355C208.081 275.958 208.841 276.036 209.181 275.617C209.522 275.276 209.365 274.49 208.841 273.992C208.264 273.389 207.478 273.31 207.137 273.73ZM204.149 269.877C203.73 270.139 203.73 270.821 204.149 271.423C204.569 272.026 205.276 272.288 205.617 272.026C206.036 271.685 206.036 271.004 205.617 270.401C205.25 269.798 204.569 269.536 204.149 269.877Z" fill="#F5F5F5"/>
</g>
<defs>
<filter id="filter0_d_16_34" x="0.899994" y="0.0249939" width="480.2" height="478.952" filterUnits="userSpaceOnUse" color-interpolation-filters="sRGB">
<feFlood flood-opacity="0" result="BackgroundImageFix"/>
<feColorMatrix in="SourceAlpha" type="matrix" values="0 0 0 0 0 0 0 0 0 0 0 0 0 0 0 0 0 0 127 0" result="hardAlpha"/>
<feMorphology radius="10" operator="dilate" in="SourceAlpha" result="effect1_dropShadow_16_34"/>
<feOffset/>
<feGaussianBlur stdDeviation="77.05"/>
<feComposite in2="hardAlpha" operator="out"/>
<feColorMatrix type="matrix" values="0 0 0 0 0.878431 0 0 0 0 0 0 0 0 0 0.498039 0 0 0 0.4 0"/>
<feBlend mode="normal" in2="BackgroundImageFix" result="effect1_dropShadow_16_34"/>
<feBlend mode="normal" in="SourceGraphic" in2="effect1_dropShadow_16_34" result="shape"/>
</filter>
</defs>
</svg>
