<svg width="482" height="481" viewBox="0 0 482 481" fill="none" xmlns="http://www.w3.org/2000/svg">
<g filter="url(#filter0_d_16_33)">
<rect x="166" y="165.877" width="150" height="149.998" rx="74.9989" fill="#E0007F" fill-opacity="0.1" shape-rendering="crispEdges"/>
<rect x="165.5" y="165.377" width="151" height="150.998" rx="75.4989" stroke="#E0007F" stroke-opacity="0.4" shape-rendering="crispEdges"/>
<path d="M213.384 290.875H192.652V224.111H213.384V290.875ZM203.007 215.004C196.377 215.004 191 209.513 191 202.884C191 199.699 192.265 196.645 194.517 194.394C196.768 192.142 199.822 190.877 203.007 190.877C206.191 190.877 209.245 192.142 211.497 194.394C213.748 196.645 215.013 199.699 215.013 202.884C215.013 209.513 209.634 215.004 203.007 215.004ZM290.978 290.875H270.29V258.375C270.29 250.629 270.134 240.696 259.511 240.696C248.732 240.696 247.08 249.111 247.08 257.817V290.875H226.371V224.111H246.254V233.218H246.545C249.312 227.973 256.074 222.437 266.161 222.437C287.143 222.437 291 236.254 291 254.201V290.875H290.978Z" fill="#F5F5F5"/>
</g>
<defs>
<filter id="filter0_d_16_33" x="0.899994" y="0.776947" width="480.2" height="480.198" filterUnits="userSpaceOnUse" color-interpolation-filters="sRGB">
<feFlood flood-opacity="0" result="BackgroundImageFix"/>
<feColorMatrix in="SourceAlpha" type="matrix" values="0 0 0 0 0 0 0 0 0 0 0 0 0 0 0 0 0 0 127 0" result="hardAlpha"/>
<feMorphology radius="10" operator="dilate" in="SourceAlpha" result="effect1_dropShadow_16_33"/>
<feOffset/>
<feGaussianBlur stdDeviation="77.05"/>
<feComposite in2="hardAlpha" operator="out"/>
<feColorMatrix type="matrix" values="0 0 0 0 0.878431 0 0 0 0 0 0 0 0 0 0.498039 0 0 0 0.4 0"/>
<feBlend mode="normal" in2="BackgroundImageFix" result="effect1_dropShadow_16_33"/>
<feBlend mode="normal" in="SourceGraphic" in2="effect1_dropShadow_16_33" result="shape"/>
</filter>
</defs>
</svg>
