<svg width="482" height="474" viewBox="0 0 482 474" fill="none" xmlns="http://www.w3.org/2000/svg">
<g filter="url(#filter0_d_16_32)">
<rect x="166" y="165.875" width="150" height="143" rx="71.5" fill="#E0007F" fill-opacity="0.1" shape-rendering="crispEdges"/>
<rect x="165.5" y="165.375" width="151" height="144" rx="72" stroke="#E0007F" stroke-opacity="0.4" shape-rendering="crispEdges"/>
<path d="M289.105 224.64C289.867 224.035 291 224.601 291 225.558V265.5C291 270.676 286.801 274.875 281.625 274.875H200.375C195.199 274.875 191 270.676 191 265.5V225.578C191 224.601 192.113 224.054 192.895 224.66C197.27 228.058 203.07 232.375 222.992 246.847C227.113 249.855 234.066 256.183 241 256.144C247.973 256.203 255.062 249.738 259.027 246.847C278.949 232.375 284.73 228.039 289.105 224.64ZM241 249.875C245.531 249.953 252.055 244.172 255.336 241.789C281.254 222.98 283.227 221.34 289.203 216.652C290.336 215.773 291 214.406 291 212.961V209.25C291 204.074 286.801 199.875 281.625 199.875H200.375C195.199 199.875 191 204.074 191 209.25V212.961C191 214.406 191.664 215.754 192.797 216.652C198.773 221.32 200.746 222.98 226.664 241.789C229.945 244.172 236.469 249.953 241 249.875Z" fill="#F5F5F5"/>
</g>
<defs>
<filter id="filter0_d_16_32" x="0.899994" y="0.77475" width="480.2" height="473.2" filterUnits="userSpaceOnUse" color-interpolation-filters="sRGB">
<feFlood flood-opacity="0" result="BackgroundImageFix"/>
<feColorMatrix in="SourceAlpha" type="matrix" values="0 0 0 0 0 0 0 0 0 0 0 0 0 0 0 0 0 0 127 0" result="hardAlpha"/>
<feMorphology radius="10" operator="dilate" in="SourceAlpha" result="effect1_dropShadow_16_32"/>
<feOffset/>
<feGaussianBlur stdDeviation="77.05"/>
<feComposite in2="hardAlpha" operator="out"/>
<feColorMatrix type="matrix" values="0 0 0 0 0.878431 0 0 0 0 0 0 0 0 0 0.498039 0 0 0 0.4 0"/>
<feBlend mode="normal" in2="BackgroundImageFix" result="effect1_dropShadow_16_32"/>
<feBlend mode="normal" in="SourceGraphic" in2="effect1_dropShadow_16_32" result="shape"/>
</filter>
</defs>
</svg>
