<svg width="751" height="444" viewBox="0 0 751 444" fill="none" xmlns="http://www.w3.org/2000/svg">
<g filter="url(#filter0_d_47_11)">
<rect x="14.5" y="14.5" width="172" height="177" rx="12.5" stroke="url(#paint0_linear_47_11)" stroke-width="3" shape-rendering="crispEdges"/>
<path d="M70.5 33.2059L75.9531 95.5694L100.422 103.794L125.047 95.5694L130.5 33.2059H70.5ZM118.656 53.3582H89.9375L90.5781 61.1419H118.016L115.891 84.5242L100.594 88.7784V88.8257H100.422L85 84.5242L84.0625 72.5809H91.5156L92.0625 78.5841L100.422 80.8687L108.812 78.5841L109.75 68.7837H83.6719L81.6719 45.8425H119.344L118.656 53.3582Z" fill="#F5F5F5"/>
<path d="M75.0469 141.832V133.169H78.6844V153.794H75.0469V145.169H65.0719V153.794H61.3969V133.169H65.0719V141.832H75.0469ZM81.6738 136.469V133.169H98.8488V136.469H92.0988V153.794H88.4238V136.469H81.6738ZM101.841 153.794V133.169H106.753L112.341 144.457L118.041 133.169H122.691V153.794H119.053V138.232L113.841 148.507H110.691L105.516 138.232V153.794H101.841ZM127.717 153.794V133.169H131.392V150.457H141.217V153.794H127.717Z" fill="#F5F5F5"/>
</g>
<g filter="url(#filter1_d_47_11)">
<rect x="289.5" y="14.5" width="172" height="177" rx="12.5" stroke="url(#paint1_linear_47_11)" stroke-width="3" shape-rendering="crispEdges"/>
<path d="M345.5 33.3781L350.953 95.4373L375.5 103.622L400.047 95.4373L405.5 33.3781H345.5ZM394.422 45.9216L393.672 53.338L375.656 61.0679L375.609 61.0836H393.031L391.031 84.0697L375.688 88.5697L360.25 83.9913L359.25 72.4042H366.891L367.391 78.4094L375.609 80.4948L384.156 78.0801L384.734 68.4216L358.75 68.3432V68.3275L358.719 68.3432L358.156 61.0836L375.672 53.7613L376.688 53.338H357.484L356.578 45.9216H394.422Z" fill="#F5F5F5"/>
<path d="M352.988 134.197C354.663 133.272 356.601 132.809 358.801 132.809C360.801 132.809 362.726 133.197 364.576 133.972L365.176 134.197L363.938 137.084L363.376 136.897C362.376 136.522 361.538 136.297 360.863 136.222C360.188 136.122 359.476 136.072 358.726 136.072C357.276 136.072 356.001 136.397 354.901 137.047C353.826 137.672 353.001 138.534 352.426 139.634C351.851 140.734 351.563 141.947 351.563 143.272C351.563 145.472 352.238 147.247 353.588 148.597C354.963 149.922 356.851 150.584 359.251 150.584C360.476 150.584 361.963 150.259 363.713 149.609L364.238 149.384L365.438 152.347L364.913 152.572C363.713 153.047 362.626 153.397 361.651 153.622C360.676 153.847 359.663 153.959 358.613 153.959C356.413 153.959 354.488 153.484 352.838 152.534C351.213 151.584 349.963 150.297 349.088 148.672C348.238 147.047 347.813 145.259 347.813 143.309C347.813 141.309 348.263 139.522 349.163 137.947C350.063 136.347 351.338 135.097 352.988 134.197ZM379.62 136.559C378.82 136.359 377.983 136.259 377.108 136.259C375.833 136.259 374.833 136.484 374.108 136.934C373.383 137.384 373.02 137.997 373.02 138.772C373.02 139.422 373.345 139.934 373.995 140.309C374.67 140.684 375.72 141.097 377.145 141.547C378.595 141.997 379.783 142.434 380.708 142.859C381.658 143.284 382.47 143.909 383.145 144.734C383.82 145.559 384.158 146.609 384.158 147.884C384.158 148.934 383.87 149.922 383.295 150.847C382.72 151.747 381.783 152.497 380.483 153.097C379.208 153.672 377.57 153.959 375.57 153.959C374.395 153.959 373.32 153.847 372.345 153.622C371.37 153.372 370.233 152.997 368.933 152.497L368.445 152.272L369.683 148.934L370.245 149.159C372.52 150.009 374.395 150.434 375.87 150.434C377.22 150.434 378.308 150.209 379.133 149.759C379.958 149.284 380.37 148.659 380.37 147.884C380.395 147.134 380.07 146.572 379.395 146.197C378.72 145.797 377.633 145.372 376.133 144.922C374.708 144.472 373.533 144.034 372.608 143.609C371.683 143.184 370.895 142.572 370.245 141.772C369.595 140.947 369.27 139.897 369.27 138.622C369.27 137.497 369.583 136.497 370.208 135.622C370.833 134.747 371.733 134.059 372.908 133.559C374.083 133.059 375.445 132.809 376.995 132.809C378.32 132.809 379.445 132.922 380.37 133.147C381.295 133.347 382.195 133.597 383.07 133.897L383.483 134.047L382.283 137.384C381.333 137.009 380.445 136.734 379.62 136.559ZM398.641 136.559C397.841 136.359 397.004 136.259 396.129 136.259C394.854 136.259 393.854 136.484 393.129 136.934C392.404 137.384 392.041 137.997 392.041 138.772C392.041 139.422 392.366 139.934 393.016 140.309C393.691 140.684 394.741 141.097 396.166 141.547C397.616 141.997 398.804 142.434 399.729 142.859C400.679 143.284 401.491 143.909 402.166 144.734C402.841 145.559 403.179 146.609 403.179 147.884C403.179 148.934 402.891 149.922 402.316 150.847C401.741 151.747 400.804 152.497 399.504 153.097C398.229 153.672 396.591 153.959 394.591 153.959C393.416 153.959 392.341 153.847 391.366 153.622C390.391 153.372 389.254 152.997 387.954 152.497L387.466 152.272L388.704 148.934L389.266 149.159C391.541 150.009 393.416 150.434 394.891 150.434C396.241 150.434 397.329 150.209 398.154 149.759C398.979 149.284 399.391 148.659 399.391 147.884C399.416 147.134 399.091 146.572 398.416 146.197C397.741 145.797 396.654 145.372 395.154 144.922C393.729 144.472 392.554 144.034 391.629 143.609C390.704 143.184 389.916 142.572 389.266 141.772C388.616 140.947 388.291 139.897 388.291 138.622C388.291 137.497 388.604 136.497 389.229 135.622C389.854 134.747 390.754 134.059 391.929 133.559C393.104 133.059 394.466 132.809 396.016 132.809C397.341 132.809 398.466 132.922 399.391 133.147C400.316 133.347 401.216 133.597 402.091 133.897L402.504 134.047L401.304 137.384C400.354 137.009 399.466 136.734 398.641 136.559Z" fill="#F5F5F5"/>
</g>
<g filter="url(#filter2_d_47_11)">
<rect x="564.5" y="14.5" width="172" height="177" rx="12.5" stroke="url(#paint2_linear_47_11)" stroke-width="3" shape-rendering="crispEdges"/>
<path d="M674.071 38.5H626.929C623.379 38.5 620.5 41.3795 620.5 44.9286V92.0714C620.5 95.6205 623.379 98.5 626.929 98.5H674.071C677.621 98.5 680.5 95.6205 680.5 92.0714V44.9286C680.5 41.3795 677.621 38.5 674.071 38.5ZM653.152 85.2946C653.152 91.1339 649.723 93.7991 644.728 93.7991C640.214 93.7991 637.603 91.4687 636.263 88.6429L640.857 85.8705C641.741 87.4375 642.545 88.7634 644.487 88.7634C646.335 88.7634 647.513 88.0402 647.513 85.2143V66.0491H653.152V85.2946ZM666.491 93.7991C661.254 93.7991 657.866 91.308 656.219 88.0402L660.812 85.3884C662.018 87.3571 663.598 88.817 666.371 88.817C668.701 88.817 670.201 87.6518 670.201 86.0312C670.201 84.1027 668.674 83.4196 666.089 82.2812L664.683 81.6786C660.612 79.9509 657.92 77.7679 657.92 73.1741C657.92 68.942 661.147 65.7277 666.17 65.7277C669.759 65.7277 672.33 66.9732 674.179 70.2411L669.786 73.0536C668.821 71.3259 667.777 70.6429 666.156 70.6429C664.509 70.6429 663.464 71.6875 663.464 73.0536C663.464 74.7411 664.509 75.4241 666.933 76.4821L668.339 77.0848C673.134 79.1339 675.826 81.2366 675.826 85.9509C675.826 91.0134 671.835 93.7991 666.491 93.7991Z" fill="#F5F5F5"/>
<path d="M586.251 141.037V127.875H589.888V141.037C589.888 143.237 589.363 145.075 588.313 146.55C587.288 148.025 585.251 148.763 582.201 148.763C581.151 148.763 580.138 148.638 579.163 148.388L578.676 148.2L579.238 145.012L579.876 145.163C580.451 145.313 581.088 145.388 581.788 145.388C583.638 145.388 584.838 144.963 585.388 144.113C585.963 143.238 586.251 142.213 586.251 141.037ZM594.353 134.85C596.303 134.2 597.903 133.875 599.153 133.875C601.578 133.875 603.266 134.375 604.216 135.375C605.191 136.375 605.678 137.8 605.678 139.65V148.5H602.828L602.416 147.488C601.291 148.388 599.891 148.837 598.216 148.837C596.666 148.837 595.428 148.438 594.503 147.638C593.578 146.837 593.116 145.813 593.116 144.563C593.116 143.163 593.628 142.075 594.653 141.3C595.703 140.5 597.191 140.05 599.116 139.95L601.928 139.8C601.928 138.55 601.703 137.7 601.253 137.25C600.803 136.8 599.916 136.575 598.591 136.575C597.466 136.575 596.241 136.825 594.916 137.325L594.353 134.85ZM601.403 145.688C601.728 145.513 601.953 145.388 602.078 145.313V142.238L599.528 142.425C597.653 142.525 596.716 143.15 596.716 144.3C596.716 144.875 596.928 145.325 597.353 145.65C597.778 145.975 598.366 146.138 599.116 146.138C599.616 146.138 600.041 146.1 600.391 146.025C600.741 145.95 601.078 145.838 601.403 145.688ZM618.834 134.1H622.584L617.221 148.5H613.584L608.034 134.1H612.046L615.459 144.713L618.834 134.1ZM625.803 134.85C627.753 134.2 629.353 133.875 630.603 133.875C633.028 133.875 634.715 134.375 635.665 135.375C636.64 136.375 637.128 137.8 637.128 139.65V148.5H634.278L633.865 147.488C632.74 148.388 631.34 148.837 629.665 148.837C628.115 148.837 626.878 148.438 625.953 147.638C625.028 146.837 624.565 145.813 624.565 144.563C624.565 143.163 625.078 142.075 626.103 141.3C627.153 140.5 628.64 140.05 630.565 139.95L633.378 139.8C633.378 138.55 633.153 137.7 632.703 137.25C632.253 136.8 631.365 136.575 630.04 136.575C628.915 136.575 627.69 136.825 626.365 137.325L625.803 134.85ZM632.853 145.688C633.178 145.513 633.403 145.388 633.528 145.313V142.238L630.978 142.425C629.103 142.525 628.165 143.15 628.165 144.3C628.165 144.875 628.378 145.325 628.803 145.65C629.228 145.975 629.815 146.138 630.565 146.138C631.065 146.138 631.49 146.1 631.84 146.025C632.19 145.95 632.528 145.838 632.853 145.688ZM651.746 131.438C650.946 131.238 650.108 131.137 649.233 131.137C647.958 131.137 646.958 131.362 646.233 131.813C645.508 132.263 645.146 132.875 645.146 133.65C645.146 134.3 645.471 134.813 646.121 135.188C646.796 135.563 647.846 135.975 649.271 136.425C650.721 136.875 651.908 137.313 652.833 137.738C653.783 138.163 654.596 138.788 655.271 139.613C655.946 140.438 656.283 141.488 656.283 142.763C656.283 143.812 655.996 144.8 655.421 145.725C654.846 146.625 653.908 147.375 652.608 147.975C651.333 148.55 649.696 148.837 647.696 148.837C646.521 148.837 645.446 148.725 644.471 148.5C643.496 148.25 642.358 147.875 641.058 147.375L640.571 147.15L641.808 143.812L642.371 144.038C644.646 144.888 646.521 145.313 647.996 145.313C649.346 145.313 650.433 145.088 651.258 144.638C652.083 144.162 652.496 143.537 652.496 142.763C652.521 142.013 652.196 141.45 651.521 141.075C650.846 140.675 649.758 140.25 648.258 139.8C646.833 139.35 645.658 138.913 644.733 138.488C643.808 138.063 643.021 137.45 642.371 136.65C641.721 135.825 641.396 134.775 641.396 133.5C641.396 132.375 641.708 131.375 642.333 130.5C642.958 129.625 643.858 128.937 645.033 128.438C646.208 127.938 647.571 127.688 649.121 127.688C650.446 127.688 651.571 127.8 652.496 128.025C653.421 128.225 654.321 128.475 655.196 128.775L655.608 128.925L654.408 132.263C653.458 131.888 652.571 131.613 651.746 131.438ZM663.979 137.963C663.254 138.812 662.891 139.95 662.891 141.375C662.891 142.75 663.279 143.875 664.054 144.75C664.829 145.6 665.891 146.025 667.241 146.025C667.916 146.025 668.504 145.963 669.004 145.838C669.529 145.688 670.241 145.463 671.141 145.163L672.154 147.488C671.404 147.913 670.591 148.25 669.716 148.5C668.866 148.75 667.841 148.875 666.641 148.875C664.391 148.875 662.579 148.188 661.204 146.813C659.854 145.438 659.179 143.625 659.179 141.375C659.179 139.05 659.854 137.225 661.204 135.9C662.554 134.55 664.366 133.875 666.641 133.875C667.791 133.875 668.766 133.988 669.566 134.213C670.391 134.438 671.254 134.762 672.154 135.188L671.141 137.55C670.241 137.25 669.529 137.038 669.004 136.913C668.504 136.763 667.916 136.688 667.241 136.688C665.816 136.688 664.729 137.113 663.979 137.963ZM675.007 134.1H677.557L678.007 135.15C679.332 134.3 680.745 133.875 682.245 133.875C683.17 133.875 684.045 134.063 684.87 134.438L684.157 137.7L684.007 137.738C683.157 137.238 682.132 136.988 680.932 136.988C680.107 136.988 679.32 137.125 678.57 137.4V148.5H675.007V134.1ZM687.336 148.5V134.1H690.936V148.5H687.336ZM687.523 130.987C687.973 131.438 688.511 131.663 689.136 131.663C689.786 131.663 690.323 131.438 690.748 130.987C691.198 130.538 691.423 130 691.423 129.375C691.423 128.725 691.198 128.188 690.748 127.763C690.323 127.313 689.786 127.087 689.136 127.087C688.511 127.087 687.973 127.313 687.523 127.763C687.073 128.188 686.848 128.725 686.848 129.375C686.848 130 687.073 130.538 687.523 130.987ZM694.976 134.1H697.489L697.901 135.038C699.301 134.263 700.726 133.875 702.176 133.875C703.226 133.875 704.276 134.113 705.326 134.588C706.376 135.063 707.251 135.863 707.951 136.988C708.676 138.088 709.039 139.538 709.039 141.338C709.039 143.663 708.389 145.5 707.089 146.85C705.814 148.175 704.014 148.837 701.689 148.837C701.114 148.837 700.589 148.775 700.114 148.65C699.664 148.525 699.151 148.338 698.576 148.088V156.225H694.976V134.1ZM705.364 141.525C705.364 138.325 703.976 136.725 701.201 136.725C700.276 136.725 699.414 136.9 698.614 137.25V145.313C699.339 145.788 700.164 146.025 701.089 146.025C702.364 146.025 703.389 145.675 704.164 144.975C704.964 144.25 705.364 143.1 705.364 141.525ZM719.173 145.913C719.898 145.913 720.823 145.763 721.948 145.462L722.436 148.013C721.561 148.263 720.811 148.463 720.186 148.612C719.586 148.762 718.986 148.837 718.386 148.837C716.311 148.837 714.923 148.4 714.223 147.525C713.548 146.65 713.211 145.437 713.211 143.887V136.913H710.811V134.1H713.211V129.975H716.811V134.1H721.798V136.913H716.811V143.812C716.811 145.213 717.598 145.913 719.173 145.913Z" fill="#F5F5F5"/>
</g>
<g filter="url(#filter3_d_47_11)">
<rect x="152" y="252.5" width="172" height="177" rx="12.5" stroke="url(#paint3_linear_47_11)" stroke-width="3" shape-rendering="crispEdges"/>
<path d="M258.766 276.167H246.75L238 290.175L230.5 276.167H203L238 336.833L273 276.167H258.766ZM211.703 281.226H220.109L238 312.564L255.875 281.226H264.281L238 326.793L211.703 281.226Z" fill="#F5F5F5"/>
<path d="M204.873 386.833L197.335 366.208H201.498L207.235 382.896L212.448 366.208H216.385L209.26 386.833H204.873ZM231.711 386.871H229.236L228.786 385.821C227.836 386.271 227.024 386.608 226.349 386.833C225.699 387.058 224.949 387.171 224.099 387.171C221.924 387.171 220.499 386.546 219.824 385.296C219.174 384.021 218.849 382.471 218.849 380.646V372.433H222.411V381.133C222.411 381.908 222.599 382.596 222.974 383.196C223.349 383.796 224.036 384.096 225.036 384.096C226.136 384.096 227.186 383.808 228.186 383.233V372.433H231.711V386.871ZM238.313 373.146C239.338 372.521 240.438 372.208 241.613 372.208C243.788 372.208 245.451 372.883 246.601 374.233C247.776 375.558 248.363 377.383 248.363 379.708V381.096H238.576C238.676 382.321 239.101 383.171 239.851 383.646C240.601 384.121 241.663 384.358 243.038 384.358C244.488 384.358 245.813 384.208 247.013 383.908L247.651 386.346C246.026 386.921 244.326 387.208 242.551 387.208C240.076 387.208 238.188 386.521 236.888 385.146C235.588 383.771 234.938 381.958 234.938 379.708C234.938 378.208 235.251 376.896 235.876 375.771C236.501 374.621 237.313 373.746 238.313 373.146ZM243.938 375.958C243.363 375.333 242.613 375.021 241.688 375.021C240.938 375.021 240.251 375.333 239.626 375.958C239.026 376.583 238.701 377.458 238.651 378.583H244.801C244.801 377.433 244.513 376.558 243.938 375.958ZM253.187 387.246C252.612 387.246 252.112 387.033 251.687 386.608C251.262 386.183 251.049 385.683 251.049 385.108C251.049 384.533 251.262 384.033 251.687 383.608C252.112 383.183 252.612 382.971 253.187 382.971C253.762 382.971 254.262 383.183 254.687 383.608C255.112 384.033 255.324 384.533 255.324 385.108C255.324 385.683 255.112 386.183 254.687 386.608C254.262 387.033 253.762 387.246 253.187 387.246ZM259.163 386.721V372.433H262.688V387.921C262.688 389.396 262.351 390.696 261.676 391.821C261.026 392.971 259.726 393.896 257.776 394.596L257.288 394.746L256.051 392.271L256.576 391.971C257.376 391.571 257.951 391.171 258.301 390.771C258.651 390.396 258.876 389.908 258.976 389.308C259.101 388.733 259.163 387.871 259.163 386.721ZM259.313 369.321C259.763 369.771 260.301 369.996 260.926 369.996C261.576 369.996 262.113 369.771 262.538 369.321C262.988 368.871 263.213 368.333 263.213 367.708C263.213 367.058 262.988 366.521 262.538 366.096C262.113 365.646 261.576 365.421 260.926 365.421C260.301 365.421 259.763 365.646 259.313 366.096C258.863 366.521 258.638 367.058 258.638 367.708C258.638 368.333 258.863 368.871 259.313 369.321ZM271.53 387.171C269.68 387.171 267.818 386.733 265.943 385.858L266.955 383.046C267.805 383.346 268.668 383.596 269.543 383.796C270.418 383.996 271.143 384.096 271.718 384.096C272.768 384.096 273.505 383.983 273.93 383.758C274.355 383.533 274.568 383.183 274.568 382.708C274.568 382.383 274.368 382.121 273.968 381.921C273.568 381.721 272.905 381.471 271.98 381.171C270.88 380.846 269.955 380.521 269.205 380.196C268.455 379.846 267.805 379.346 267.255 378.696C266.705 378.021 266.43 377.171 266.43 376.146C266.43 375.146 266.843 374.246 267.668 373.446C268.493 372.621 270.118 372.208 272.543 372.208C273.318 372.208 274.143 372.296 275.018 372.471C275.918 372.646 276.68 372.833 277.305 373.033L276.405 375.808C274.855 375.358 273.58 375.133 272.58 375.133C271.48 375.133 270.743 375.233 270.368 375.433C269.993 375.633 269.805 375.921 269.805 376.296C269.805 376.696 270.03 377.021 270.48 377.271C270.955 377.521 271.693 377.796 272.693 378.096C273.793 378.421 274.693 378.746 275.393 379.071C276.118 379.396 276.73 379.858 277.23 380.458C277.755 381.058 278.018 381.821 278.018 382.746C278.018 383.871 277.53 384.896 276.555 385.821C275.605 386.721 273.93 387.171 271.53 387.171Z" fill="#F5F5F5"/>
</g>
<g filter="url(#filter4_d_47_11)">
<rect x="427" y="252.5" width="172" height="177" rx="12.5" stroke="url(#paint4_linear_47_11)" stroke-width="3" shape-rendering="crispEdges"/>
<path d="M522.147 313.991C522.147 319.671 516.828 319.539 516.265 319.539H505.432V308.599H516.265C521.965 308.599 522.147 312.871 522.147 313.991ZM515.431 304.196C515.521 304.196 520.579 304.33 520.579 299.333C520.579 297.255 520.109 294.529 515.431 294.529H505.432V304.196H515.431ZM543 286.5V326.5C542.992 329.149 541.936 331.689 540.062 333.562C538.189 335.436 535.649 336.492 533 336.5H493C490.351 336.492 487.811 335.436 485.938 333.562C484.064 331.689 483.008 329.149 483 326.5V286.5C483.008 283.851 484.064 281.311 485.938 279.438C487.811 277.564 490.351 276.508 493 276.5H533C535.649 276.508 538.189 277.564 540.062 279.438C541.936 281.311 542.992 283.851 543 286.5ZM528.275 314.785C528.275 311.896 527.384 306.978 521.705 305.765V305.667C524.774 304.357 526.706 301.883 526.706 298.215C526.706 297.278 526.974 289.539 516.313 289.539H499.304V324.539C516.478 324.539 518.037 324.764 521.215 323.774C523.118 323.182 528.275 321.366 528.275 314.785Z" fill="#F5F5F5"/>
<path d="M445.681 386.5V365.875H452.694C455.369 365.875 457.219 366.438 458.244 367.563C459.294 368.663 459.819 369.888 459.819 371.238C459.819 373.188 458.919 374.713 457.119 375.813C458.494 376.088 459.556 376.713 460.306 377.688C461.081 378.663 461.469 379.725 461.469 380.875C461.469 382.4 460.781 383.725 459.406 384.85C458.056 385.95 455.656 386.5 452.206 386.5H445.681ZM455.319 369.738C454.694 369.288 453.594 369.062 452.019 369.062H449.356V374.35H452.019C453.519 374.35 454.594 374.138 455.244 373.713C455.919 373.288 456.256 372.625 456.256 371.725C456.256 370.85 455.944 370.188 455.319 369.738ZM456.369 378.212C455.419 377.688 453.881 377.425 451.756 377.425L449.356 377.463V383.275H451.756C453.831 383.275 455.356 383.075 456.331 382.675C457.331 382.275 457.831 381.538 457.831 380.462C457.831 379.463 457.344 378.712 456.369 378.212ZM475.338 385.9C474.213 386.525 472.913 386.837 471.438 386.837C469.963 386.837 468.663 386.525 467.538 385.9C466.438 385.25 465.575 384.363 464.95 383.237C464.35 382.113 464.05 380.825 464.05 379.375C464.05 377.05 464.725 375.225 466.075 373.9C467.425 372.55 469.225 371.875 471.475 371.875C473.725 371.875 475.513 372.55 476.838 373.9C478.188 375.25 478.863 377.063 478.863 379.338C478.863 380.813 478.55 382.113 477.925 383.237C477.325 384.363 476.463 385.25 475.338 385.9ZM474.063 375.925C473.363 375.1 472.488 374.688 471.438 374.688C470.413 374.688 469.538 375.1 468.813 375.925C468.113 376.75 467.763 377.9 467.763 379.375C467.763 380.825 468.113 381.963 468.813 382.788C469.513 383.588 470.388 383.988 471.438 383.988C472.538 383.988 473.425 383.588 474.1 382.788C474.8 381.988 475.15 380.85 475.15 379.375C475.15 377.875 474.788 376.725 474.063 375.925ZM492.688 385.9C491.563 386.525 490.263 386.837 488.788 386.837C487.313 386.837 486.013 386.525 484.888 385.9C483.788 385.25 482.926 384.363 482.301 383.237C481.701 382.113 481.401 380.825 481.401 379.375C481.401 377.05 482.076 375.225 483.426 373.9C484.776 372.55 486.576 371.875 488.826 371.875C491.076 371.875 492.863 372.55 494.188 373.9C495.538 375.25 496.213 377.063 496.213 379.338C496.213 380.813 495.901 382.113 495.276 383.237C494.676 384.363 493.813 385.25 492.688 385.9ZM491.413 375.925C490.713 375.1 489.838 374.688 488.788 374.688C487.763 374.688 486.888 375.1 486.163 375.925C485.463 376.75 485.113 377.9 485.113 379.375C485.113 380.825 485.463 381.963 486.163 382.788C486.863 383.588 487.738 383.988 488.788 383.988C489.888 383.988 490.776 383.588 491.451 382.788C492.151 381.988 492.501 380.85 492.501 379.375C492.501 377.875 492.138 376.725 491.413 375.925ZM506.327 383.913C507.052 383.913 507.977 383.763 509.102 383.462L509.589 386.013C508.714 386.263 507.964 386.463 507.339 386.612C506.739 386.762 506.139 386.837 505.539 386.837C503.464 386.837 502.077 386.4 501.377 385.525C500.702 384.65 500.364 383.437 500.364 381.887V374.913H497.964V372.1H500.364V367.975H503.964V372.1H508.952V374.913H503.964V381.812C503.964 383.213 504.752 383.913 506.327 383.913ZM517.128 386.837C515.278 386.837 513.415 386.4 511.54 385.525L512.553 382.713C513.403 383.013 514.265 383.263 515.14 383.462C516.015 383.663 516.74 383.763 517.315 383.763C518.365 383.763 519.103 383.65 519.528 383.425C519.953 383.2 520.165 382.85 520.165 382.375C520.165 382.05 519.965 381.788 519.565 381.588C519.165 381.388 518.503 381.138 517.578 380.838C516.478 380.513 515.553 380.188 514.803 379.863C514.053 379.513 513.403 379.013 512.853 378.363C512.303 377.688 512.028 376.837 512.028 375.813C512.028 374.813 512.44 373.913 513.265 373.113C514.09 372.288 515.715 371.875 518.14 371.875C518.915 371.875 519.74 371.963 520.615 372.138C521.515 372.313 522.278 372.5 522.903 372.7L522.003 375.475C520.453 375.025 519.178 374.8 518.178 374.8C517.078 374.8 516.34 374.9 515.965 375.1C515.59 375.3 515.403 375.587 515.403 375.963C515.403 376.363 515.628 376.688 516.078 376.938C516.553 377.187 517.29 377.462 518.29 377.763C519.39 378.087 520.29 378.412 520.99 378.738C521.715 379.063 522.328 379.525 522.828 380.125C523.353 380.725 523.615 381.488 523.615 382.412C523.615 383.537 523.128 384.563 522.153 385.488C521.203 386.388 519.528 386.837 517.128 386.837ZM533.675 383.913C534.4 383.913 535.325 383.763 536.45 383.462L536.937 386.013C536.062 386.263 535.312 386.463 534.687 386.612C534.087 386.762 533.487 386.837 532.887 386.837C530.812 386.837 529.425 386.4 528.725 385.525C528.05 384.65 527.712 383.437 527.712 381.887V374.913H525.312V372.1H527.712V367.975H531.312V372.1H536.3V374.913H531.312V381.812C531.312 383.213 532.1 383.913 533.675 383.913ZM539.488 372.1H542.038L542.488 373.15C543.813 372.3 545.226 371.875 546.726 371.875C547.651 371.875 548.526 372.063 549.351 372.438L548.638 375.7L548.488 375.738C547.638 375.238 546.613 374.988 545.413 374.988C544.588 374.988 543.801 375.125 543.051 375.4V386.5H539.488V372.1ZM552.304 372.85C554.254 372.2 555.854 371.875 557.104 371.875C559.529 371.875 561.217 372.375 562.167 373.375C563.142 374.375 563.629 375.8 563.629 377.65V386.5H560.779L560.367 385.488C559.242 386.388 557.842 386.837 556.167 386.837C554.617 386.837 553.379 386.438 552.454 385.638C551.529 384.837 551.067 383.813 551.067 382.563C551.067 381.163 551.579 380.075 552.604 379.3C553.654 378.5 555.142 378.05 557.067 377.95L559.879 377.8C559.879 376.55 559.654 375.7 559.204 375.25C558.754 374.8 557.867 374.575 556.542 374.575C555.417 374.575 554.192 374.825 552.867 375.325L552.304 372.85ZM559.354 383.688C559.679 383.513 559.904 383.388 560.029 383.313V380.238L557.479 380.425C555.604 380.525 554.667 381.15 554.667 382.3C554.667 382.875 554.879 383.325 555.304 383.65C555.729 383.975 556.317 384.138 557.067 384.138C557.567 384.138 557.992 384.1 558.342 384.025C558.692 383.95 559.029 383.838 559.354 383.688ZM567.485 372.1H569.997L570.41 373.038C571.81 372.263 573.235 371.875 574.685 371.875C575.735 371.875 576.785 372.113 577.835 372.588C578.885 373.063 579.76 373.863 580.46 374.988C581.185 376.088 581.547 377.538 581.547 379.338C581.547 381.663 580.897 383.5 579.597 384.85C578.322 386.175 576.522 386.837 574.197 386.837C573.622 386.837 573.097 386.775 572.622 386.65C572.172 386.525 571.66 386.338 571.085 386.088V394.225H567.485V372.1ZM577.872 379.525C577.872 376.325 576.485 374.725 573.71 374.725C572.785 374.725 571.922 374.9 571.122 375.25V383.313C571.847 383.788 572.672 384.025 573.597 384.025C574.872 384.025 575.897 383.675 576.672 382.975C577.472 382.25 577.872 381.1 577.872 379.525Z" fill="#F5F5F5"/>
</g>
<defs>
<filter id="filter0_d_47_11" x="0.4" y="0.4" width="200.2" height="205.2" filterUnits="userSpaceOnUse" color-interpolation-filters="sRGB">
<feFlood flood-opacity="0" result="BackgroundImageFix"/>
<feColorMatrix in="SourceAlpha" type="matrix" values="0 0 0 0 0 0 0 0 0 0 0 0 0 0 0 0 0 0 127 0" result="hardAlpha"/>
<feOffset/>
<feGaussianBlur stdDeviation="6.3"/>
<feComposite in2="hardAlpha" operator="out"/>
<feColorMatrix type="matrix" values="0 0 0 0 0.890196 0 0 0 0 0.298039 0 0 0 0 0.14902 0 0 0 0.78 0"/>
<feBlend mode="normal" in2="BackgroundImageFix" result="effect1_dropShadow_47_11"/>
<feBlend mode="normal" in="SourceGraphic" in2="effect1_dropShadow_47_11" result="shape"/>
</filter>
<filter id="filter1_d_47_11" x="275.4" y="0.4" width="200.2" height="205.2" filterUnits="userSpaceOnUse" color-interpolation-filters="sRGB">
<feFlood flood-opacity="0" result="BackgroundImageFix"/>
<feColorMatrix in="SourceAlpha" type="matrix" values="0 0 0 0 0 0 0 0 0 0 0 0 0 0 0 0 0 0 127 0" result="hardAlpha"/>
<feOffset/>
<feGaussianBlur stdDeviation="6.3"/>
<feComposite in2="hardAlpha" operator="out"/>
<feColorMatrix type="matrix" values="0 0 0 0 0.14902 0 0 0 0 0.301961 0 0 0 0 0.894118 0 0 0 0.78 0"/>
<feBlend mode="normal" in2="BackgroundImageFix" result="effect1_dropShadow_47_11"/>
<feBlend mode="normal" in="SourceGraphic" in2="effect1_dropShadow_47_11" result="shape"/>
</filter>
<filter id="filter2_d_47_11" x="550.4" y="0.4" width="200.2" height="205.2" filterUnits="userSpaceOnUse" color-interpolation-filters="sRGB">
<feFlood flood-opacity="0" result="BackgroundImageFix"/>
<feColorMatrix in="SourceAlpha" type="matrix" values="0 0 0 0 0 0 0 0 0 0 0 0 0 0 0 0 0 0 127 0" result="hardAlpha"/>
<feOffset/>
<feGaussianBlur stdDeviation="6.3"/>
<feComposite in2="hardAlpha" operator="out"/>
<feColorMatrix type="matrix" values="0 0 0 0 0.941176 0 0 0 0 0.858824 0 0 0 0 0.309804 0 0 0 0.78 0"/>
<feBlend mode="normal" in2="BackgroundImageFix" result="effect1_dropShadow_47_11"/>
<feBlend mode="normal" in="SourceGraphic" in2="effect1_dropShadow_47_11" result="shape"/>
</filter>
<filter id="filter3_d_47_11" x="137.9" y="238.4" width="200.2" height="205.2" filterUnits="userSpaceOnUse" color-interpolation-filters="sRGB">
<feFlood flood-opacity="0" result="BackgroundImageFix"/>
<feColorMatrix in="SourceAlpha" type="matrix" values="0 0 0 0 0 0 0 0 0 0 0 0 0 0 0 0 0 0 127 0" result="hardAlpha"/>
<feOffset/>
<feGaussianBlur stdDeviation="6.3"/>
<feComposite in2="hardAlpha" operator="out"/>
<feColorMatrix type="matrix" values="0 0 0 0 0.258824 0 0 0 0 0.721569 0 0 0 0 0.513726 0 0 0 0.78 0"/>
<feBlend mode="normal" in2="BackgroundImageFix" result="effect1_dropShadow_47_11"/>
<feBlend mode="normal" in="SourceGraphic" in2="effect1_dropShadow_47_11" result="shape"/>
</filter>
<filter id="filter4_d_47_11" x="412.9" y="238.4" width="200.2" height="205.2" filterUnits="userSpaceOnUse" color-interpolation-filters="sRGB">
<feFlood flood-opacity="0" result="BackgroundImageFix"/>
<feColorMatrix in="SourceAlpha" type="matrix" values="0 0 0 0 0 0 0 0 0 0 0 0 0 0 0 0 0 0 127 0" result="hardAlpha"/>
<feOffset/>
<feGaussianBlur stdDeviation="6.3"/>
<feComposite in2="hardAlpha" operator="out"/>
<feColorMatrix type="matrix" values="0 0 0 0 0.415686 0 0 0 0 0.160784 0 0 0 0 0.913725 0 0 0 0.78 0"/>
<feBlend mode="normal" in2="BackgroundImageFix" result="effect1_dropShadow_47_11"/>
<feBlend mode="normal" in="SourceGraphic" in2="effect1_dropShadow_47_11" result="shape"/>
</filter>
<linearGradient id="paint0_linear_47_11" x1="100.5" y1="-35.392" x2="100.5" y2="258.126" gradientUnits="userSpaceOnUse">
<stop stop-color="#E34C26"/>
<stop offset="1" stop-color="#001214"/>
</linearGradient>
<linearGradient id="paint1_linear_47_11" x1="375.5" y1="-37.201" x2="375.5" y2="254.055" gradientUnits="userSpaceOnUse">
<stop stop-color="#264DE4"/>
<stop offset="1" stop-color="#001214"/>
</linearGradient>
<linearGradient id="paint2_linear_47_11" x1="650.5" y1="-3.28141" x2="650.5" y2="255.864" gradientUnits="userSpaceOnUse">
<stop stop-color="#F0DB4F"/>
<stop offset="1" stop-color="#001214"/>
</linearGradient>
<linearGradient id="paint3_linear_47_11" x1="238" y1="217.985" x2="238" y2="470.347" gradientUnits="userSpaceOnUse">
<stop stop-color="#42B883"/>
<stop offset="1" stop-color="#001214"/>
</linearGradient>
<linearGradient id="paint4_linear_47_11" x1="513" y1="234.719" x2="513" y2="493.864" gradientUnits="userSpaceOnUse">
<stop stop-color="#6A29E9"/>
<stop offset="1" stop-color="#001214"/>
</linearGradient>
</defs>
</svg>
